<svg viewBox="-0.12 -0.12 24 24" xmlns="http://www.w3.org/2000/svg" id="Plane-Hi-Sign--Streamline-Ux.svg" height="24" width="24"><desc>Plane Hi Sign Streamline Illustration: https://streamlinehq.com</desc><path d="M1.0043351999999999 11.879999999999999a9.504 9.504 0 1 0 19.008 0 9.504 9.504 0 1 0 -19.008 0Z" fill="#d9edff" stroke-width="0.24"></path><path d="M14.069484 14.937911999999997a0.47519999999999996 0.47519999999999996 0 0 1 -0.30293999999999993 0.44288639999999996c-3.572316 1.3920983999999998 -6.256720799999999 0.23403599999999997 -8.6448384 0.16631999999999997a9.889624799999998 9.889624799999998 0 0 0 -3.935844 0.7935839999999998 0.47519999999999996 0.47519999999999996 0 0 1 -0.6576767999999998 -0.43884719999999994V8.8365816a0.47519999999999996 0.47519999999999996 0 0 1 0.2734776 -0.43053119999999995 10.079467199999998 10.079467199999998 0 0 1 4.320043199999999 -0.9629927999999999c2.3151743999999996 0.0651024 4.905014399999999 1.1442815999999998 8.3145744 -0.05583599999999999a0.47519999999999996 0.47519999999999996 0 0 1 0.633204 0.44835119999999995Z" fill="#ffffff" stroke="#020064" stroke-linecap="round" stroke-linejoin="round" stroke-width="0.24"></path><path d="m18.5444424 11.327104799999999 -0.8149679999999999 0.0788832a0.26136 0.26136 0 0 1 -0.2639736 -0.16631999999999997l-0.34499519999999995 -0.6952176a0.33263999999999994 0.33263999999999994 0 0 0 -0.6313032 0.1309176l-0.0734184 1.4365295999999999a0.2627856 0.2627856 0 0 0 0.20077199999999998 0.24662879999999998l1.8071855999999997 0.41627519999999996c0.16631999999999997 0.037303199999999995 0.33454079999999997 0.06890399999999999 0.5046624 0.09100079999999999l1.5372719999999997 0.031838399999999996 1.8212039999999998 -0.05013359999999999a0.47519999999999996 0.47519999999999996 0 0 0 0.4618943999999999 -0.47519999999999996v-0.7127999999999999a0.47519999999999996 0.47519999999999996 0 0 0 -0.4956335999999999 -0.47519999999999996Z" fill="#b0d9ff" stroke-width="0.24"></path><path d="m18.5444424 11.327104799999999 -0.8149679999999999 0.0788832a0.26136 0.26136 0 0 1 -0.2639736 -0.16631999999999997l-0.34499519999999995 -0.6952176a0.33263999999999994 0.33263999999999994 0 0 0 -0.6313032 0.1309176l-0.0734184 1.4365295999999999a0.2627856 0.2627856 0 0 0 0.20077199999999998 0.24662879999999998l1.8071855999999997 0.41627519999999996c0.16631999999999997 0.037303199999999995 0.33454079999999997 0.06890399999999999 0.5046624 0.09100079999999999l1.5372719999999997 0.031838399999999996 1.8212039999999998 -0.05013359999999999a0.47519999999999996 0.47519999999999996 0 0 0 0.4618943999999999 -0.47519999999999996v-0.7127999999999999a0.47519999999999996 0.47519999999999996 0 0 0 -0.4956335999999999 -0.47519999999999996Z" fill="none" stroke="#020064" stroke-linecap="round" stroke-linejoin="round" stroke-width="0.24"></path><path d="M19.284804 14.177591999999999a0.4424112 0.4424112 0 0 1 -0.33715439999999997 0.16964639999999997l-0.09812879999999999 0.0026135999999999998a0.2948616 0.2948616 0 0 1 -0.27252719999999997 -0.42411599999999994l0.7025831999999999 -1.4403312a0.32551199999999997 0.32551199999999997 0 0 1 0.28393199999999996 -0.1827144l0.8380152 -0.022334399999999997a0.17606159999999998 0.17606159999999998 0 0 1 0.14256 0.28512Z" fill="#b0d9ff" stroke="#020064" stroke-linecap="round" stroke-linejoin="round" stroke-width="0.24"></path><path d="m22.7487744 12.0211344 0.48304079999999994 0" fill="none" stroke="#020064" stroke-linecap="round" stroke-linejoin="round" stroke-width="0.24"></path><path d="m23.2318152 11.1177792 0 1.8067103999999998" fill="none" stroke="#020064" stroke-linecap="round" stroke-linejoin="round" stroke-width="0.24"></path><path d="M21.159943199999997 11.228263199999999a1.188 1.188 0 0 0 -1.1152943999999998 -0.6457968 1.4332032 1.4332032 0 0 0 -0.8057015999999999 0.297l-0.5740415999999999 0.44312399999999996Z" fill="#ffffff" stroke="#020064" stroke-linecap="round" stroke-linejoin="round" stroke-width="0.24"></path><path d="m14.069484 9.965656799999998 2.362932 1.8212039999999998 -2.362932 1.920996" fill="none" stroke="#020064" stroke-linecap="round" stroke-linejoin="round" stroke-width="0.24"></path><path d="M16.1050032 18.197784a0.7047216 0.7047216 0 0 0 -0.2558952 0.049420799999999994 1.1803967999999998 1.1803967999999998 0 0 0 -2.3322816 0 0.7104239999999999 0.7104239999999999 0 1 0 -0.2558952 1.3726151999999998h2.8440719999999997a0.7111367999999999 0.7111367999999999 0 1 0 0 -1.4220359999999999Z" fill="#ffffff" stroke="#020064" stroke-linecap="round" stroke-linejoin="round" stroke-width="0.24"></path><path d="M9.989416799999999 3.3886512a0.7097112 0.7097112 0 0 0 -0.2558952 0.049420799999999994 1.1803967999999998 1.1803967999999998 0 0 0 -2.3322816 0 0.7104239999999999 0.7104239999999999 0 1 0 -0.2558952 1.3726151999999998h2.8440719999999997a0.7111367999999999 0.7111367999999999 0 1 0 0 -1.4220359999999999Z" fill="#ffffff" stroke="#020064" stroke-linecap="round" stroke-linejoin="round" stroke-width="0.24"></path><path d="m22.036449599999997 11.1952368 0.2166912 -0.0080784a0.47519999999999996 0.47519999999999996 0 0 1 0.4956335999999999 0.47519999999999996v0.7127999999999999a0.47519999999999996 0.47519999999999996 0 0 1 -0.4618943999999999 0.47519999999999996l-0.2504304 0.0068904Z" fill="#ffffff" stroke="#020064" stroke-linecap="round" stroke-linejoin="round" stroke-width="0.24"></path><path d="M6.135307199999999 14.5805616a0.5778431999999999 0.5778431999999999 0 0 1 -0.577368 -0.577368v-1.4892767999999998l-1.5059087999999998 -0.17677439999999997v1.435104a0.577368 0.577368 0 1 1 -1.154736 0V9.4210776a0.577368 0.577368 0 0 1 1.154736 0v1.75824l1.5059087999999998 0.17677439999999997v-1.7040671999999997a0.577368 0.577368 0 0 1 1.154736 0v4.351168799999999a0.5780808 0.5780808 0 0 1 -0.577368 0.577368Z" fill="#b0d9ff" stroke="#020064" stroke-linecap="round" stroke-linejoin="round" stroke-width="0.24"></path><path d="M8.1539568 14.577710399999999a0.5780808 0.5780808 0 0 1 -0.577368 -0.577368V11.0170368a0.577368 0.577368 0 0 1 1.154736 0v2.9833055999999996a0.5780808 0.5780808 0 0 1 -0.577368 0.577368Z" fill="#b0d9ff" stroke="#020064" stroke-linecap="round" stroke-linejoin="round" stroke-width="0.24"></path><path d="M7.4411568 9.398505599999998a0.7127999999999999 0.7127999999999999 0 1 0 1.4255999999999998 0 0.7127999999999999 0.7127999999999999 0 1 0 -1.4255999999999998 0Z" fill="#b0d9ff" stroke="#020064" stroke-linecap="round" stroke-linejoin="round" stroke-width="0.24"></path><path d="M11.1745656 14.629031999999999a0.6750216 0.6750216 0 1 1 0.6750216 -0.6750216 0.6757344 0.6757344 0 0 1 -0.6750216 0.6750216Z" fill="#b0d9ff" stroke="#020064" stroke-linecap="round" stroke-linejoin="round" stroke-width="0.24"></path><path d="M11.1745656 12.8976408a0.32741279999999995 0.32741279999999995 0 0 1 -0.3176712 -0.24734159999999997l-0.29842559999999996 -1.1763575999999998c-0.19982159999999996 -0.7876439999999999 -0.26017199999999996 -1.0254815999999998 -0.27514079999999996 -1.1152943999999998l-0.0040392 0a0.9000287999999999 0.9000287999999999 0 1 1 1.7907912 0l-0.0035639999999999995 0c-0.013067999999999998 0.0800712 -0.0648648 0.28393199999999996 -0.23213519999999999 0.9442223999999999l-0.3423816 1.3486175999999999a0.32693759999999994 0.32693759999999994 0 0 1 -0.3174336 0.24615359999999997Z" fill="#b0d9ff" stroke="#020064" stroke-linecap="round" stroke-linejoin="round" stroke-width="0.24"></path></svg>